PathFileType	4	(X/Y/Z)	C:/Users/beibeiliu/ov580/test_trc/User2\sequence.20_training_dense_right.trc
DataRate	CameraRate	NumFrames	NumMarkers	Units	OrigDataRate	OrigDataStartFrame	OrigNumFrames
120	120	10	19	mm	120	62	92
Frame#	Time	ThumbCMC			ThumbMCP			ThumbIP			ThumbTip			IndexMCP			IndexPIP			IndexTip			MiddleMCP			MiddlePIP			MiddleTip			RingMCP			RingPIP			RingTip			PinkyMCP			PinkyPIP			PinkyTip			BackHand1			BackHand2			BackHand3	
		X0	Y0	Z0	X1	Y1	Z1	X2	Y2	Z2	X3	Y3	Z3	X4	Y4	Z4	X5	Y5	Z5	X6	Y6	Z6	X7	Y7	Z7	X8	Y8	Z8	X9	Y9	Z9	X10	Y10	Z10	X11	Y11	Z11	X12	Y12	Z12	X13	Y13	Z13	X14	Y14	Z14	X15	Y15	Z15	X16	Y16	Z16	X17	Y17	Z17	X18	Y18	Z18	
61	0.508333	95.9186	60.643	-16.862	81.4438	94.487	-21.0246	49.8089	111.712	-33.3967	23.6441	99.002	-36.9618	50.966	61.4595	-82.5286	21.6203	83.4519	-82.0848	13.505	99.2124	-55.6139	39.0996	32.1025	-86.9712	23.7553	45.9904	-115.825	4.42297	55.7717	-137.489	27.0856	15.6988	-76.5797	12.6769	16.4188	-95.8009	-4.19203	18.6276	-119.311	13.896	4.63673	-51.6265	-3.1211	3.25778	-65.5505	-15.9635	-2.59318	-90.0924	54.9258	1.58824	-33.0796	76.5376	-10.2662	-9.59483	92.6835	20.6303	-34.5649	
62	0.516667	112.172	55.2085	-23.6055	106.394	90.6084	-31.1742	81.4505	117.963	-44.3833	54.1535	119.705	-45.6152	58.928	67.286	-83.6877	43.9975	95.9363	-85.0991	41.9124	121.433	-59.5804	38.1752	42.9867	-91.2096	26.6844	57.3199	-113.859	5.87507	71.3179	-137.06	21.2492	30.7557	-68.8063	6.74662	36.5183	-94.5662	-12.0701	41.5123	-116.949	8.33535	28.0831	-39.7622	-10.5238	31.945	-58.8661	-26.7214	30.0376	-77.5734	52.1397	13.1965	-27.5088	67.7939	-4.14569	-3.37476	87.9301	18.4796	-35.11	
63	0.525	119.142	55.8793	-26.2439	118.078	90.3321	-35.5043	101.11	120.018	-48.3783	70.2733	128.162	-52.3947	68.4207	72.3934	-86.7049	63.2473	107.378	-90.2408	57.0393	127.662	-62.626	45.8658	49.561	-90.6611	35.3938	63.0229	-114.811	16.4238	79.1328	-142.281	26.0627	40.3818	-69.7999	9.97406	46.0994	-92.631	-4.71616	53.7903	-115.364	12.8826	41.9469	-41.4393	-2.94217	47.6383	-58.579	-22.6982	44.6765	-74.6448	52.1139	20.8098	-31.5063	68.4627	4.31727	-3.0176	92.4129	21.7017	-36.1077	
64	0.533333	124.482	53.5217	-21.4789	125.08	92.2277	-38.1719	110.661	120.512	-48.5921	79.8579	128.114	-56.2485	82.3743	71.3796	-91.518	72.8407	108.166	-93.6667	66.5176	128.038	-68.125	58.7343	49.8016	-96.3268	43.8443	62.945	-121.121	34.0159	77.4681	-147.227	34.2368	40.9305	-76.2104	16.0257	45.5572	-101.779	7.33673	53.0366	-122.328	19.6621	43.7145	-49.483	-0.0542174	47.4344	-66.2518	-17.6374	44.9798	-79.8687	55.6282	23.0929	-34.0642	70.1758	5.83356	-5.98861	96.0725	20.9186	-34.3296	
65	0.541667	129.089	52.7479	-26.0177	125.864	86.9915	-38.4807	111.399	115.372	-53.6767	84.1606	123.561	-60.4353	87.8859	64.4952	-95.8839	73.2222	97.3828	-99.0164	67.9025	118.844	-77.5535	62.3337	40.2726	-103.538	53.8993	52.6308	-127.156	45.3285	65.9876	-153.095	43.3334	32.8628	-86.0455	30.0802	36.5822	-108.343	17.7766	41.7545	-133.928	25.3582	34.271	-58.5706	4.40833	36.4405	-75.3758	-7.73128	34.5457	-91.0172	64.2912	15.3539	-36.3739	79.1072	2.11968	-8.74409	100.984	14.8311	-40.0484	
66	0.55	131.472	49.848	-30.21	122.87	82.2843	-42.2005	102.493	107.879	-62.9507	75.7003	108.069	-70.0491	90.8326	54.2995	-103.703	78.2365	81.9389	-109.952	63.0501	104.769	-83.8485	76.9056	24.4581	-107.978	66.5193	34.5799	-136.823	53.8601	45.3152	-165.834	53.9457	11.7173	-96.8619	42.2151	13.6089	-121.055	34.3532	17.5022	-144.028	37.1756	10.3841	-68.799	22.4352	11.0605	-86.1626	5.37348	4.60252	-106.227	73.1962	-1.15081	-46.8707	88.0329	-9.93994	-16.9959	113.285	8.03726	-41.7804	
67	0.558333	126.333	48.7756	-30.6481	105.928	74.3422	-46.3827	80.0863	86.1904	-69.1797	57.382	82.0165	-81.6568	98.077	39.1701	-110.138	73.8844	60.4756	-117.499	48.9984	69.7138	-95.0101	99.2115	11.7732	-119.88	88.4222	15.1856	-146.08	77.2271	21.5811	-174.153	82.887	-13.0294	-103.812	76.4643	-12.1911	-131.175	68.2719	-9.82891	-158.965	63.3635	-23.8458	-82.9539	55.4668	-25.6695	-111.391	47.4512	-32.3096	-129.882	99.0474	-18.9963	-53.1214	110.958	-27.3214	-22.1956	130.157	5.70829	-48.1879	
68	0.566667	106.777	42.5262	-27.3844	80.3397	54.5662	-45.1092	53.3065	60.0832	-73.4395	41.5088	42.6212	-93.8711	105.238	32.3115	-109.975	76.3364	34.3014	-126.136	46.345	31.9023	-107.718	121.311	10.2942	-123.745	112.93	14.8041	-149.917	104.711	19.4486	-180.264	120.908	-17.6757	-113.405	119.188	-12.7087	-139.776	116.729	-8.35576	-171.125	109.562	-37.2493	-97.1671	108.2	-37.2397	-120.741	110.998	-39.4849	-149.755	129.128	-20.4181	-58.3444	137.644	-25.9487	-29.7847	137.783	9.69808	-46.0894	
69	0.575	92.192	20.3498	-30.284	64.3443	18.6569	-48.9118	44.7595	13.2118	-82.696	44.7836	-1.61204	-103.089	100.026	34.9091	-109.921	79.0472	20.8749	-128.53	59.2801	-4.81555	-118.638	130.837	30.0716	-115.365	124.23	36.7882	-144.5	120.872	37.7367	-177.379	148.002	4.94302	-109.584	147.565	13.2521	-135.446	151.478	17.9568	-166.392	150.665	-18.7346	-101.181	157.594	-20.9674	-123.191	163.863	-15.3534	-146.575	152.225	-6.13528	-60.1281	154.917	-7.21344	-23.9205	132.725	22.0608	-35.4282	
70	0.583333	93.2206	5.49557	-29.1914	70.3379	-4.24728	-55.9487	53.9221	-12.2496	-88.4261	64.248	-21.4599	-114.164	103.279	32.3681	-109.828	88.7299	13.7041	-129.758	81.0446	-21.8913	-122.409	135.802	42.0474	-109.369	126.183	51.2771	-135.841	126.692	56.395	-167.472	156.515	28.3312	-102.559	159.427	40.0941	-126.166	160.705	52.8028	-152.646	171.95	6.03645	-95.5309	182.48	12.5751	-118.831	188.039	23.0857	-134.12	160.802	10.6677	-56.3021	162.353	6.42492	-23.8752	132.511	27.8671	-33.3404	
